<svg xmlns="http://www.w3.org/2000/svg" fill="none" viewBox="-0.5 -0.5 24 24" height="24" width="24"><path stroke="#000000" stroke-linejoin="round" d="M11.5 9.104166666666668c1.15 0 2.555875 -0.4791666666666667 3.354166666666667 -0.9583333333333334 0 0 -1.4375 -0.9583333333333334 -3.354166666666667 -0.9583333333333334s-3.354166666666667 0.9583333333333334 -3.354166666666667 0.9583333333333334c0.7982916666666666 0.4791666666666667 2.2041666666666666 0.9583333333333334 3.354166666666667 0.9583333333333334Z" stroke-width="1"></path><path stroke="#000000" stroke-linecap="round" stroke-linejoin="round" d="M9.583333333333334 4.3125v0.9583333333333334" stroke-width="1"></path><path stroke="#000000" stroke-linecap="round" stroke-linejoin="round" d="M12.9375 5.270833333333334h0.9583333333333334" stroke-width="1"></path><path stroke="#000000" stroke-linecap="round" stroke-linejoin="round" d="M17.729166666666668 8.625s-0.10541666666666667 -1.19025 -0.10541666666666667 -1.319625a5.9991666666666665 5.9991666666666665 0 0 0 -6.126625 -5.866916666666667 5.9991666666666665 5.9991666666666665 0 0 0 -6.12375 5.866916666666667C5.373375 7.4366666666666665 5.270833333333334 8.625 5.270833333333334 8.625c-0.416875 0.6286666666666667 -3.5995 5.571750000000001 -2.580791666666667 6.87125 0.29133333333333333 0.36991666666666667 0.945875 0.17441666666666666 1.61 -0.175375a0.21945833333333334 0.21945833333333334 0 0 1 0.31625000000000003 0.1542916666666667 6.540625 6.540625 0 0 0 1.492125 3.1030833333333336 0.21945833333333334 0.21945833333333334 0 0 1 -0.10541666666666667 0.35458333333333336c-0.9027499999999999 0.26162500000000005 -1.495 0.692875 -1.495 1.1835416666666667 0 0.7973333333333333 1.5649583333333335 1.4432500000000001 3.498875 1.4432500000000001a6.2215 6.2215 0 0 0 2.7264583333333334 -0.5433749999999999 0.22425000000000003 0.22425000000000003 0 0 1 0.11979166666666667 -0.023000000000000003 7.22775 7.22775 0 0 0 1.2975833333333335 0 0.22616666666666665 0.22616666666666665 0 0 1 0.11979166666666667 0.023000000000000003 6.217666666666667 6.217666666666667 0 0 0 2.7264583333333334 0.5433749999999999c1.9300833333333332 0 3.498875 -0.6459166666666667 3.498875 -1.4432500000000001 0 -0.4906666666666667 -0.5912916666666667 -0.9238333333333333 -1.495 -1.1845a0.22041666666666668 0.22041666666666668 0 0 1 -0.15141666666666667 -0.253 0.22041666666666668 0.22041666666666668 0 0 1 0.046000000000000006 -0.09679166666666668 6.53775 6.53775 0 0 0 1.4930833333333335 -3.1088333333333336 0.2175416666666667 0.2175416666666667 0 0 1 0.3181666666666667 -0.15525c0.6631666666666667 0.34979166666666667 1.319625 0.54625 1.6109583333333335 0.175375C21.313333333333333 14.211125000000001 18.142208333333336 9.254625 17.729166666666668 8.625Z" stroke-width="1"></path><path stroke="#000000" stroke-linecap="round" stroke-linejoin="round" d="M17.729166666666668 8.625c-0.7982916666666666 0.6392083333333334 -3.1625 1.9166666666666667 -6.229166666666667 1.9166666666666667S6.0691250000000005 9.264208333333334 5.270833333333334 8.625" stroke-width="1"></path><path stroke="#000000" stroke-linecap="round" stroke-linejoin="round" d="M18.6875 10.541666666666668c-0.7982916666666666 0.6392083333333334 -4.120833333333334 2.3958333333333335 -7.1875 2.3958333333333335S5.110791666666667 11.180875 4.3125 10.541666666666668" stroke-width="1"></path><path stroke="#000000" stroke-linecap="round" stroke-linejoin="round" d="M7.666666666666667 12.458333333333334v2.875h2.3958333333333335v-2.3958333333333335" stroke-width="1"></path><path stroke="#000000" stroke-linecap="round" stroke-linejoin="round" d="M6.104583333333333 18.573458333333335c1.0905833333333332 1.060875 3.1356666666666664 2.1390000000000002 4.734166666666667 2.411166666666667" stroke-width="1"></path><path stroke="#000000" stroke-linecap="round" stroke-linejoin="round" d="M16.915541666666666 18.573458333333335c-1.0915416666666666 1.060875 -3.1366250000000004 2.1390000000000002 -4.734166666666667 2.411166666666667" stroke-width="1"></path></svg>